# xmcd
#
# Track frame offsets: 
#        150
#        13219
#        37076
#        51758
#        68634
#        87009
#        101522
#        120282
#        141391
#        155829
#        170342
#
# Disc length: 2459 seconds
#
# Revision: 0
# Processed by: cddbd v1.5.2PL0 Copyright (c) Steve Scherf et al.
# Submitted via: ExactAudioCopy v0.99pb5
#
DISCID=8f09990b
DTITLE=The Pole Cats - Modern History
DYEAR=1900
DGENRE=Blues
TTITLE0=Stackin' The Odds
TTITLE1=So Alone
TTITLE2=Make It Up
TTITLE3=Don't Call Me No More
TTITLE4=One Worry
TTITLE5=You Shouldn't Have Left Me
TTITLE6=Your Gettin' Yours
TTITLE7=Still Runnin'
TTITLE8=Nothin' To Do
TTITLE9=Fool On A Stool
TTITLE10=Pickled Beans And Asparagus
EXTD=
EXTT0=
EXTT1=
EXTT2=
EXTT3=
EXTT4=
EXTT5=
EXTT6=
EXTT7=
EXTT8=
EXTT9=
EXTT10=
PLAYORDER=
